ply
format ascii 1.0
element vertex 32
property float x
property float y
property float z
element face 22
property uchar red
property uchar green
property uchar blue
property uchar alpha
property list uchar int vertex_indices
end_header
-0.0173205 -0.03 0 
0.0173205 -0.03 0 
0.0173205 -0.03 7.80626e-18 
-0.0173205 -0.03 1.12899e-17 
0.0173205 -0.03 1.64657e-17 
-0.0173205 -0.03 1.9082e-17 
-0.0173205 -0.03 0.05 
0.0173205 -0.03 0.05 
2.13588e-17 -6.93889e-18 -0.025 
-1.38778e-17 -4.33681e-18 -0.025 
-2.31112e-33 -1.73472e-18 -0.025 
1.73472e-18 -8.67362e-19 -0.025 
-5.09575e-18 0 -0.025 
-1.73334e-33 1.38778e-17 -0.025 
0.0272383 5.63501e-05 -1.11022e-16 
0.0272383 5.63501e-05 -2.77556e-17 
-0.0272383 5.63501e-05 0 
0.0272383 5.63501e-05 5.20417e-18 
0.0272383 5.63501e-05 6.93889e-18 
-0.0272383 5.63501e-05 1.11673e-17 
-0.0272383 5.63501e-05 2.80808e-17 
-0.0272383 5.63501e-05 0.05 
0.0272383 5.63501e-05 0.05 
0.0173205 0.03 -1.11022e-16 
0.0173205 0.03 -2.77556e-17 
0.0173205 0.03 -1.04083e-17 
-0.0173205 0.03 0 
0.0173205 0.03 8.67362e-19 
-0.0173205 0.03 3.46945e-18 
-0.0173205 0.03 2.08167e-17 
-0.0173205 0.03 0.05 
0.0173205 0.03 0.05 
16 145 93 0 3 21 16 0
16 145 93 0 3 6 21 0
16 145 93 0 3 1 6 0
16 145 93 0 3 14 22 1
16 145 93 0 3 22 7 1
16 145 93 0 3 7 6 1
16 145 93 0 3 8 14 1
16 145 93 0 3 8 1 0
16 145 93 0 3 16 8 0
128 128 128 0 3 7 21 6
128 128 128 0 3 22 21 7
16 145 93 0 3 16 26 8
16 145 93 0 3 23 14 8
16 145 93 0 3 26 23 8
16 145 93 0 3 23 22 14
16 145 93 0 3 21 26 16
16 145 93 0 3 30 26 21
128 128 128 0 3 22 30 21
16 145 93 0 3 23 31 22
128 128 128 0 3 31 30 22
16 145 93 0 3 26 31 23
16 145 93 0 3 30 31 26
