ply
format ascii 1.0
element vertex 32
property float x
property float y
property float z
element face 22
property uchar red
property uchar green
property uchar blue
property uchar alpha
property list uchar int vertex_indices
end_header
-0.0202073 -0.035 0 
0.0202073 -0.035 0 
-0.0202073 -0.035 5.20417e-18 
0.0202073 -0.035 2.25514e-17 
0.0202073 -0.035 2.61146e-17 
-0.0202073 -0.035 3.2866e-17 
-0.0202073 -0.035 0.05 
0.0202073 -0.035 0.05 
0.0343718 -0.000714326 -5.55112e-17 
-0.0343718 -0.000714326 -8.23994e-18 
0.0343718 -0.000714326 -6.93889e-18 
-0.0343718 -0.000714326 0 
0.0343718 -0.000714326 0 
0.0343718 -0.000714326 5.20417e-18 
-0.0343718 -0.000714326 1.25767e-17 
-0.0343718 -0.000714326 0.05 
0.0343718 -0.000714326 0.05 
1.95156e-18 -4.33681e-18 -0.025 
-1.54074e-33 -3.46945e-18 -0.025 
-3.25261e-19 1.73472e-18 -0.025 
-3.46945e-18 3.90313e-18 -0.025 
-1.21431e-17 5.20417e-18 -0.025 
3.46667e-33 1.04083e-17 -0.025 
0.0202073 0.035 -5.55112e-17 
-0.0202073 0.035 -1.38778e-17 
0.0202073 0.035 -1.12757e-17 
0.0202073 0.035 -3.46945e-18 
-0.0202073 0.035 0 
0.0202073 0.035 6.93889e-18 
-0.0202073 0.035 1.21431e-17 
-0.0202073 0.035 0.05 
0.0202073 0.035 0.05 
255 200 0 0 3 15 9 0
255 200 0 0 3 6 15 0
255 200 0 0 3 1 6 0
255 200 0 0 3 8 16 1
255 200 0 0 3 16 7 1
255 200 0 0 3 7 6 1
255 200 0 0 3 9 17 0
255 200 0 0 3 17 8 1
255 200 0 0 3 0 17 1
128 128 128 0 3 7 15 6
128 128 128 0 3 16 15 7
255 200 0 0 3 23 16 8
255 200 0 0 3 17 23 8
255 200 0 0 3 15 24 9
255 200 0 0 3 24 17 9
255 200 0 0 3 30 24 15
128 128 128 0 3 16 30 15
255 200 0 0 3 23 31 16
128 128 128 0 3 31 30 16
255 200 0 0 3 24 23 17
255 200 0 0 3 30 31 24
255 200 0 0 3 31 23 24
