ply
format ascii 1.0
element vertex 34
property float x
property float y
property float z
element face 22
property uchar red
property uchar green
property uchar blue
property uchar alpha
property list uchar int vertex_indices
end_header
-0.0228053 -0.0395 -2.77556e-17 
-0.0228053 -0.0395 -4.33681e-18 
0.0228053 -0.0395 0 
0.0228053 -0.0395 1.64799e-17 
-0.0228053 -0.0395 1.73472e-17 
0.0228053 -0.0395 2.42861e-17 
-0.0228053 -0.0395 0.05 
0.0228053 -0.0395 0.05 
0.0370363 -3.46945e-17 3.46945e-18 
-0.0370363 -3.38271e-17 -1.68051e-17 
-0.0370363 -3.1225e-17 0.05 
0.0370363 -3.1225e-17 0.05 
0.0370363 -2.94903e-17 0 
0.0370363 -2.94903e-17 1.38778e-16 
0.0370363 -2.86229e-17 1.38778e-17 
-0.0370363 -2.77556e-17 -2.77556e-17 
-0.0370363 -2.77556e-17 0.05 
0.0370363 -2.77556e-17 0.05 
-0.0370363 -2.51535e-17 2.81893e-18 
0 -2.08167e-17 -0.025 
9.75782e-19 -1.73472e-18 -0.025 
1.73472e-18 -1.30104e-18 -0.025 
1.73472e-18 1.30104e-18 -0.025 
-5.3668e-18 2.60209e-18 -0.025 
0 2.08167e-17 -0.025 
-0.0228053 0.0395 -4.33681e-18 
-0.0228053 0.0395 0 
0.0228053 0.0395 0 
0.0228053 0.0395 1.64799e-17 
-0.0228053 0.0395 2.42861e-17 
0.0228053 0.0395 2.42861e-17 
0.0228053 0.0395 1.38778e-16 
-0.0228053 0.0395 0.05 
0.0228053 0.0395 0.05 
0 130 204 0 3 10 9 0
0 130 204 0 3 6 10 0
0 130 204 0 3 2 6 0
0 130 204 0 3 9 19 0
0 130 204 0 3 8 17 2
0 130 204 0 3 17 7 2
0 130 204 0 3 7 6 2
0 130 204 0 3 19 8 2
0 130 204 0 3 19 2 0
0 130 204 0 3 7 10 6
0 130 204 0 3 17 10 7
0 130 204 0 3 19 27 8
0 130 204 0 3 25 19 9
0 130 204 0 3 17 32 10
0 130 204 0 3 33 32 17
0 130 204 0 3 27 17 8
0 130 204 0 3 10 25 9
0 130 204 0 3 32 25 10
0 130 204 0 3 27 33 17
0 130 204 0 3 25 27 19
0 130 204 0 3 32 33 25
0 130 204 0 3 33 27 25
